<svg width="22" height="24" viewBox="0 0 22 24" fill="none" xmlns="http://www.w3.org/2000/svg">
<path d="M21.4321 10.6562L14.1954 0.654246C14.0705 0.483003 13.916 0.340634 13.7409 0.235325C13.5659 0.130015 13.3736 0.0638401 13.1753 0.0406037C12.9769 0.0173673 12.7763 0.0375275 12.585 0.0999256C12.3937 0.162324 12.2156 0.265729 12.0607 0.404199C11.9052 0.541763 11.7759 0.711814 11.6802 0.904579C11.5846 1.09734 11.5245 1.30902 11.5034 1.52744C11.4823 1.74586 11.5006 1.96673 11.5573 2.17733C11.6139 2.38794 11.7078 2.58414 11.8336 2.75465L18.2982 11.7064L11.5157 20.6581C11.3882 20.8265 11.2921 21.021 11.233 21.2304C11.1739 21.4397 11.1529 21.6599 11.1712 21.8782C11.1895 22.0966 11.2467 22.3088 11.3396 22.5028C11.4325 22.6967 11.5592 22.8686 11.7125 23.0085C11.9869 23.251 12.3296 23.3807 12.6814 23.3752C12.9038 23.3756 13.1236 23.3221 13.3251 23.2184C13.5266 23.1146 13.7048 22.9633 13.8472 22.7751L21.417 12.7732C21.6418 12.4769 21.7662 12.1038 21.769 11.7177C21.7718 11.3316 21.6527 10.9564 21.4321 10.6562Z" fill="#F7C325"/>
<path d="M3.59774 0.653823C3.34477 0.297923 2.97377 0.0672464 2.56634 0.0125379C2.15891 -0.0421706 1.74843 0.0835711 1.42519 0.362102C1.10196 0.640632 0.892461 1.04914 0.842775 1.49775C0.793088 1.94636 0.907287 2.39832 1.16025 2.75422L7.70058 11.7059L0.918016 20.641C0.790537 20.8094 0.694491 21.0039 0.635379 21.2133C0.576267 21.4227 0.55525 21.6428 0.573533 21.8612C0.591815 22.0795 0.649038 22.2917 0.741922 22.4857C0.834807 22.6796 0.96153 22.8515 1.11483 22.9914C1.38721 23.2399 1.73003 23.3756 2.08377 23.3748C2.30619 23.3752 2.52595 23.3217 2.72744 23.2179C2.92892 23.1142 3.10718 22.9629 3.24952 22.7747L10.8194 12.7728C11.042 12.4745 11.1638 12.1004 11.1638 11.7143C11.1638 11.3282 11.042 10.954 10.8194 10.6557L3.59774 0.653823Z" fill="#F7C325"/>
</svg>
