<svg width="22" height="16" viewBox="0 0 22 16" fill="none" xmlns="http://www.w3.org/2000/svg">
<path d="M18.27 1.33005C16.94 0.710046 15.5 0.260046 14 4.59982e-05C13.9868 -0.000374605 13.9738 0.00209348 13.9617 0.00727676C13.9496 0.01246 13.9388 0.0202326 13.93 0.0300462C13.75 0.360046 13.54 0.790046 13.4 1.12005C11.809 0.880046 10.191 0.880046 8.59999 1.12005C8.45999 0.780046 8.24999 0.360046 8.05999 0.0300462C8.04999 0.0100462 8.01999 4.59982e-05 7.98999 4.59982e-05C6.48999 0.260046 5.05999 0.710046 3.71999 1.33005C3.70999 1.33005 3.69999 1.34005 3.68999 1.35005C0.969995 5.42005 0.219995 9.38004 0.589995 13.3C0.589995 13.32 0.599995 13.34 0.619995 13.35C2.41999 14.67 4.14999 15.47 5.85999 16C5.88999 16.01 5.91999 16 5.92999 15.98C6.32999 15.43 6.68999 14.85 6.99999 14.24C7.01999 14.2 6.99999 14.16 6.95999 14.15C6.38999 13.93 5.84999 13.67 5.31999 13.37C5.27999 13.35 5.27999 13.29 5.30999 13.26C5.41999 13.18 5.52999 13.09 5.63999 13.01C5.65999 12.99 5.68999 12.99 5.70999 13C9.14999 14.57 12.86 14.57 16.26 13C16.28 12.99 16.31 12.99 16.33 13.01C16.44 13.1 16.55 13.18 16.66 13.27C16.7 13.3 16.7 13.36 16.65 13.38C16.13 13.69 15.58 13.94 15.01 14.16C14.97 14.17 14.96 14.22 14.97 14.25C15.29 14.86 15.65 15.44 16.04 15.99C16.07 16 16.1 16.01 16.13 16C17.85 15.47 19.58 14.67 21.38 13.35C21.4 13.34 21.41 13.32 21.41 13.3C21.85 8.77004 20.68 4.84005 18.31 1.35005C18.3 1.34005 18.29 1.33005 18.27 1.33005ZM7.51999 10.91C6.48999 10.91 5.62999 9.96005 5.62999 8.79005C5.62999 7.62005 6.46999 6.67005 7.51999 6.67005C8.57999 6.67005 9.41999 7.63005 9.40999 8.79005C9.40999 9.96005 8.56999 10.91 7.51999 10.91ZM14.49 10.91C13.46 10.91 12.6 9.96005 12.6 8.79005C12.6 7.62005 13.44 6.67005 14.49 6.67005C15.55 6.67005 16.39 7.63005 16.38 8.79005C16.38 9.96005 15.55 10.91 14.49 10.91Z" fill="#1E1E1E"/>
</svg>
