<svg width="547" height="547" viewBox="0 0 547 547" fill="none" xmlns="http://www.w3.org/2000/svg">
<rect width="547" height="547" rx="273.5" fill="#1360E2"/>
<circle cx="14" cy="14" r="14" transform="matrix(1 0 0 -1 112 124)" fill="white"/>
<path d="M147.5 83.5L422 83.5C424.761 83.5 427 85.7386 427 88.5V162.921C427 165.683 424.761 167.921 422 167.921H322.092C319.33 167.921 317.092 170.16 317.092 172.921V485C317.092 487.761 314.853 490 312.092 490H241.933C239.172 490 236.933 487.761 236.933 485V172.921C236.933 170.16 234.695 167.921 231.933 167.921H102C99.2386 167.921 97 165.683 97 162.921V141.683C97 138.922 99.2386 136.683 102 136.683H271.048C273.81 136.683 276.048 138.922 276.048 141.683V433.734" stroke="white" stroke-width="10"/>
</svg>
