<svg width="51" height="52" viewBox="0 0 51 52" fill="none" xmlns="http://www.w3.org/2000/svg">
<g filter="url(#filter0_d_2889_362)">
<path d="M8.46461 29.928L12.2395 36.0102C12.2835 36.0811 12.3538 36.1315 12.435 36.1506L15.2623 36.8124C15.575 36.8855 15.8458 37.08 16.0152 37.3529C16.257 37.7426 16.258 38.2355 16.0176 38.6261L14.9988 40.2815C14.9658 40.3352 14.9659 40.403 14.9992 40.4566L16.5547 42.963C16.7578 43.2901 17.1876 43.3908 17.5148 43.1877C19.919 41.6955 22.6376 40.7836 25.4553 40.5242C29.0653 40.1918 32.8942 40.1369 35.8038 37.6478L38.0836 35.6973C38.8028 35.082 38.9654 34.0339 38.4662 33.2296L38.2844 32.9367C37.8265 32.1989 36.8571 31.972 36.1193 32.4299L35.0681 33.0823C34.9108 33.1799 34.7042 33.1315 34.6066 32.9743C34.5089 32.817 34.5573 32.6103 34.7146 32.5127L37.1017 31.0311C38.2748 30.303 38.6356 28.7618 37.9075 27.5886C37.1794 26.4155 35.6382 26.0547 34.465 26.7828L32.032 28.2929C31.7387 28.4749 31.3534 28.3847 31.1714 28.0914C30.9894 27.7982 31.0796 27.4128 31.3728 27.2308L33.8059 25.7208C34.979 24.9927 35.3398 23.4514 34.6117 22.2783C33.8836 21.1052 32.3423 20.7444 31.1692 21.4725L28.1083 23.3722C28.0259 23.4234 27.9327 23.4546 27.836 23.4635C27.3232 23.5107 26.9765 22.9522 27.2465 22.5136C27.2973 22.4309 27.3667 22.3613 27.4492 22.3101L37.9445 15.7962C39.3289 14.937 40.4303 12.6902 39.4828 11.1635C38.5353 9.6369 36.033 9.62667 34.6487 10.4859L21.5154 18.637C21.1433 18.8679 20.6545 18.7535 20.4236 18.3815C20.2744 18.141 20.264 17.8406 20.3942 17.5894C20.827 16.7544 21.7942 14.8366 22.0504 13.8914C22.1949 13.3586 22.042 12.5649 21.8224 11.8368C21.482 10.7077 20.3949 10.0219 19.2163 9.98352C17.7127 9.93458 16.3836 10.9537 16.0408 12.4184L15.3792 15.245C15.1422 16.2573 14.6728 17.2005 14.0082 18L13.7553 18.3041C12.9244 19.3036 12.3376 20.4828 12.0413 21.7483L10.9989 26.2017C10.6649 27.6285 9.77781 28.8642 8.53273 29.637C8.43355 29.6985 8.40305 29.8288 8.46461 29.928Z" fill="white"/>
<path d="M8.46461 29.928L12.2395 36.0102C12.2835 36.0811 12.3538 36.1315 12.435 36.1506L15.2623 36.8124C15.575 36.8855 15.8458 37.08 16.0152 37.3529C16.257 37.7426 16.258 38.2355 16.0176 38.6261L14.9988 40.2815C14.9658 40.3352 14.9659 40.403 14.9992 40.4566L16.5547 42.963C16.7578 43.2901 17.1876 43.3908 17.5148 43.1877C19.919 41.6955 22.6376 40.7836 25.4553 40.5242C29.0653 40.1918 32.8942 40.1369 35.8038 37.6478L38.0836 35.6973C38.8028 35.082 38.9654 34.0339 38.4662 33.2296L38.2844 32.9367C37.8265 32.1989 36.8571 31.972 36.1193 32.4299L35.0681 33.0823C34.9108 33.1799 34.7042 33.1315 34.6066 32.9743C34.5089 32.817 34.5573 32.6103 34.7146 32.5127L37.1017 31.0311C38.2748 30.303 38.6356 28.7618 37.9075 27.5886C37.1794 26.4155 35.6382 26.0547 34.465 26.7828L32.032 28.2929C31.7387 28.4749 31.3534 28.3847 31.1714 28.0914C30.9894 27.7982 31.0796 27.4128 31.3728 27.2308L33.8059 25.7208C34.979 24.9927 35.3398 23.4514 34.6117 22.2783C33.8836 21.1052 32.3423 20.7444 31.1692 21.4725L28.1083 23.3722C28.0259 23.4234 27.9327 23.4546 27.836 23.4635C27.3232 23.5107 26.9765 22.9522 27.2465 22.5136C27.2973 22.4309 27.3667 22.3613 27.4492 22.3101L37.9445 15.7962C39.3289 14.937 40.4303 12.6902 39.4828 11.1635C38.5353 9.6369 36.033 9.62667 34.6487 10.4859L21.5154 18.637C21.1433 18.8679 20.6545 18.7535 20.4236 18.3815C20.2744 18.141 20.264 17.8406 20.3942 17.5894C20.827 16.7544 21.7942 14.8366 22.0504 13.8914C22.1949 13.3586 22.042 12.5649 21.8224 11.8368C21.482 10.7077 20.3949 10.0219 19.2163 9.98352C17.7127 9.93458 16.3836 10.9537 16.0408 12.4184L15.3792 15.245C15.1422 16.2573 14.6728 17.2005 14.0082 18L13.7553 18.3041C12.9244 19.3036 12.3376 20.4828 12.0413 21.7483L10.9989 26.2017C10.6649 27.6285 9.77781 28.8642 8.53273 29.637C8.43355 29.6985 8.40305 29.8288 8.46461 29.928Z" stroke="black" stroke-width="2.19678"/>
</g>
<line x1="23.9261" y1="25.7221" x2="15.7516" y2="30.7955" stroke="black" stroke-width="2.19678"/>
<line x1="26.5279" y1="29.9142" x2="18.3534" y2="34.9877" stroke="black" stroke-width="2.19678"/>
<line x1="29.1947" y1="34.2111" x2="21.0202" y2="39.2845" stroke="black" stroke-width="2.19678"/>
<defs>
<filter id="filter0_d_2889_362" x="0.377802" y="5.51758" width="43.853" height="45.83" filterUnits="userSpaceOnUse" color-interpolation-filters="sRGB">
<feFlood flood-opacity="0" result="BackgroundImageFix"/>
<feColorMatrix in="SourceAlpha" type="matrix" values="0 0 0 0 0 0 0 0 0 0 0 0 0 0 0 0 0 0 127 0" result="hardAlpha"/>
<feOffset dx="-1.83065" dy="1.83065"/>
<feGaussianBlur stdDeviation="2.56291"/>
<feColorMatrix type="matrix" values="0 0 0 0 0 0 0 0 0 0 0 0 0 0 0 0 0 0 0.6 0"/>
<feBlend mode="normal" in2="BackgroundImageFix" result="effect1_dropShadow_2889_362"/>
<feBlend mode="normal" in="SourceGraphic" in2="effect1_dropShadow_2889_362" result="shape"/>
</filter>
</defs>
</svg>
