<svg width="51" height="52" viewBox="0 0 51 52" fill="none" xmlns="http://www.w3.org/2000/svg">
<g filter="url(#filter0_d_2731_210)">
<path d="M8.46461 29.9281L12.2395 36.0103C12.2835 36.0812 12.3538 36.1317 12.435 36.1507L15.2623 36.8125C15.575 36.8857 15.8458 37.0801 16.0152 37.353C16.257 37.7427 16.258 38.2356 16.0176 38.6262L14.9988 40.2816C14.9658 40.3353 14.9659 40.4031 14.9992 40.4568L16.5547 42.9631C16.7578 43.2903 17.1876 43.3909 17.5148 43.1878C19.919 41.6957 22.6376 40.7837 25.4553 40.5243C29.0653 40.1919 32.8942 40.1371 35.8038 37.6479L38.0836 35.6975C38.8028 35.0821 38.9654 34.034 38.4662 33.2297L38.2844 32.9368C37.8265 32.199 36.8571 31.9721 36.1193 32.43L35.0681 33.0824C34.9108 33.18 34.7042 33.1317 34.6066 32.9744C34.5089 32.8171 34.5573 32.6104 34.7146 32.5128L37.1017 31.0312C38.2748 30.3031 38.6356 28.7619 37.9075 27.5888C37.1794 26.4156 35.6382 26.0549 34.465 26.783L32.032 28.293C31.7387 28.475 31.3534 28.3848 31.1714 28.0916C30.9894 27.7983 31.0796 27.413 31.3728 27.2309L33.8059 25.7209C34.979 24.9928 35.3398 23.4515 34.6117 22.2784C33.8836 21.1053 32.3423 20.7445 31.1692 21.4726L28.1083 23.3723C28.0259 23.4235 27.9327 23.4548 27.836 23.4636C27.3232 23.5109 26.9765 22.9523 27.2465 22.5137C27.2973 22.4311 27.3667 22.3614 27.4492 22.3102L37.9445 15.7963C39.3289 14.9371 40.4303 12.6903 39.4828 11.1637C38.5353 9.63703 36.033 9.62679 34.6487 10.486L21.5154 18.6371C21.1433 18.868 20.6545 18.7536 20.4236 18.3816C20.2744 18.1412 20.264 17.8407 20.3942 17.5895C20.827 16.7545 21.7942 14.8367 22.0504 13.8915C22.1949 13.3587 22.042 12.565 21.8224 11.8369C21.482 10.7078 20.3949 10.022 19.2163 9.98365C17.7127 9.9347 16.3836 10.9538 16.0408 12.4186L15.3792 15.2451C15.1422 16.2574 14.6728 17.2006 14.0082 18.0001L13.7553 18.3042C12.9244 19.3037 12.3376 20.4829 12.0413 21.7484L10.9989 26.2018C10.6649 27.6286 9.77781 28.8644 8.53273 29.6371C8.43355 29.6987 8.40305 29.829 8.46461 29.9281Z" fill="white"/>
<path d="M8.46461 29.9281L12.2395 36.0103C12.2835 36.0812 12.3538 36.1317 12.435 36.1507L15.2623 36.8125C15.575 36.8857 15.8458 37.0801 16.0152 37.353C16.257 37.7427 16.258 38.2356 16.0176 38.6262L14.9988 40.2816C14.9658 40.3353 14.9659 40.4031 14.9992 40.4568L16.5547 42.9631C16.7578 43.2903 17.1876 43.3909 17.5148 43.1878C19.919 41.6957 22.6376 40.7837 25.4553 40.5243C29.0653 40.1919 32.8942 40.1371 35.8038 37.6479L38.0836 35.6975C38.8028 35.0821 38.9654 34.034 38.4662 33.2297L38.2844 32.9368C37.8265 32.199 36.8571 31.9721 36.1193 32.43L35.0681 33.0824C34.9108 33.18 34.7042 33.1317 34.6066 32.9744C34.5089 32.8171 34.5573 32.6104 34.7146 32.5128L37.1017 31.0312C38.2748 30.3031 38.6356 28.7619 37.9075 27.5888C37.1794 26.4156 35.6382 26.0549 34.465 26.783L32.032 28.293C31.7387 28.475 31.3534 28.3848 31.1714 28.0916C30.9894 27.7983 31.0796 27.413 31.3728 27.2309L33.8059 25.7209C34.979 24.9928 35.3398 23.4515 34.6117 22.2784C33.8836 21.1053 32.3423 20.7445 31.1692 21.4726L28.1083 23.3723C28.0259 23.4235 27.9327 23.4548 27.836 23.4636C27.3232 23.5109 26.9765 22.9523 27.2465 22.5137C27.2973 22.4311 27.3667 22.3614 27.4492 22.3102L37.9445 15.7963C39.3289 14.9371 40.4303 12.6903 39.4828 11.1637C38.5353 9.63703 36.033 9.62679 34.6487 10.486L21.5154 18.6371C21.1433 18.868 20.6545 18.7536 20.4236 18.3816C20.2744 18.1412 20.264 17.8407 20.3942 17.5895C20.827 16.7545 21.7942 14.8367 22.0504 13.8915C22.1949 13.3587 22.042 12.565 21.8224 11.8369C21.482 10.7078 20.3949 10.022 19.2163 9.98365C17.7127 9.9347 16.3836 10.9538 16.0408 12.4186L15.3792 15.2451C15.1422 16.2574 14.6728 17.2006 14.0082 18.0001L13.7553 18.3042C12.9244 19.3037 12.3376 20.4829 12.0413 21.7484L10.9989 26.2018C10.6649 27.6286 9.77781 28.8644 8.53273 29.6371C8.43355 29.6987 8.40305 29.829 8.46461 29.9281Z" stroke="black" stroke-width="2.19678"/>
</g>
<line x1="23.9261" y1="25.7224" x2="15.7516" y2="30.7959" stroke="black" stroke-width="2.19678"/>
<line x1="26.5278" y1="29.9145" x2="18.3533" y2="34.9879" stroke="black" stroke-width="2.19678"/>
<line x1="29.1946" y1="34.2112" x2="21.0202" y2="39.2847" stroke="black" stroke-width="2.19678"/>
<defs>
<filter id="filter0_d_2731_210" x="0.377809" y="5.51782" width="43.853" height="45.8299" filterUnits="userSpaceOnUse" color-interpolation-filters="sRGB">
<feFlood flood-opacity="0" result="BackgroundImageFix"/>
<feColorMatrix in="SourceAlpha" type="matrix" values="0 0 0 0 0 0 0 0 0 0 0 0 0 0 0 0 0 0 127 0" result="hardAlpha"/>
<feOffset dx="-1.83065" dy="1.83065"/>
<feGaussianBlur stdDeviation="2.56291"/>
<feColorMatrix type="matrix" values="0 0 0 0 0 0 0 0 0 0 0 0 0 0 0 0 0 0 0.6 0"/>
<feBlend mode="normal" in2="BackgroundImageFix" result="effect1_dropShadow_2731_210"/>
<feBlend mode="normal" in="SourceGraphic" in2="effect1_dropShadow_2731_210" result="shape"/>
</filter>
</defs>
</svg>
