<svg width="17" height="16" viewBox="0 0 17 16" fill="none" xmlns="http://www.w3.org/2000/svg">
<path d="M7.37077 0.0198206C3.30632 0.0198206 0 3.13165 0 6.95702C0 10.7824 3.30632 13.8942 7.37077 13.8942C8.61327 13.8942 9.83471 13.6167 10.8666 13.0816C10.9493 13.1752 11.0409 13.2614 11.1404 13.3392L13.2463 15.3213C13.4408 15.5272 13.6779 15.6936 13.9431 15.8101C14.2084 15.9267 14.4961 15.991 14.7887 15.9991C15.0813 16.0072 15.3726 15.959 15.6447 15.8573C15.9167 15.7556 16.1639 15.6027 16.3708 15.4079C16.5778 15.213 16.7403 14.9805 16.8484 14.7244C16.9564 14.4683 17.0077 14.1942 16.9991 13.9188C16.9905 13.6434 16.9221 13.3726 16.7983 13.123C16.6744 12.8733 16.4977 12.6501 16.2789 12.4671L14.1729 10.4851C14.0704 10.3885 13.9574 10.3021 13.836 10.2274C14.4046 9.2562 14.7626 8.12643 14.7626 6.9372C14.7626 3.11183 11.4563 0 7.39183 0L7.37077 0.0198206ZM7.37077 2.00188C10.298 2.00188 12.6356 4.20196 12.6356 6.95702C12.6356 8.26517 12.1302 9.47423 11.2457 10.3662C11.2246 10.386 11.2036 10.4058 11.1825 10.4256C11.083 10.5034 10.9914 10.5897 10.9087 10.6833C9.98213 11.4761 8.71857 11.932 7.34971 11.932C4.42246 11.932 2.08488 9.73189 2.08488 6.97684C2.08488 4.22178 4.42246 2.0217 7.34971 2.0217L7.37077 2.00188Z" fill="#515255"/>
</svg>
