<svg width="24" height="24" viewBox="0 0 24 24" fill="none" xmlns="http://www.w3.org/2000/svg">
<g clip-path="url(#clip0_2731_196)">
<path d="M2 22L3.72 16.8403C2.84724 15.3724 2.34483 13.6593 2.34483 11.8276C2.34483 6.4 6.74483 2 12.1724 2C17.6 2 22 6.4 22 11.8276C22 17.2552 17.6 21.6552 12.1724 21.6552C10.521 21.6552 8.96586 21.2459 7.6 20.5266L2 22Z" fill="#2CB742"/>
<path d="M18.4429 15.0983C17.9891 14.2407 16.3156 13.26 16.3156 13.26C15.937 13.0441 15.4801 13.02 15.2643 13.4048C15.2643 13.4048 14.7205 14.0569 14.5822 14.1507C13.9505 14.5786 13.3653 14.5621 12.7746 13.9714L11.4019 12.5986L10.0291 11.2259C9.43841 10.6352 9.42186 10.05 9.84979 9.41827C9.94358 9.27999 10.5956 8.7362 10.5956 8.7362C10.9805 8.51999 10.9563 8.06344 10.7405 7.68482C10.7405 7.68482 9.75979 6.01137 8.9022 5.55758C8.53737 5.36447 8.08944 5.43206 7.79772 5.72378L7.19151 6.32999C5.26841 8.25309 6.2153 10.4241 8.13841 12.3472L9.89599 14.1048L11.6536 15.8624C13.5767 17.7855 15.7477 18.7324 17.6708 16.8093L18.277 16.2031C18.5687 15.9107 18.636 15.4628 18.4429 15.0983Z" fill="white"/>
</g>
<defs>
<clipPath id="clip0_2731_196">
<rect width="24" height="24" fill="white"/>
</clipPath>
</defs>
</svg>
